{
	"scenes":[{
		"nodes":[0,
		1,
		2,
		3,
		4]
	}],
	"asset":{
		"version":"2.0",
		"generator":"Created using the official Cinema 4D glTF Exporter 1.000x284978"
	},
	"accessors":[{
		"bufferView":0,
		"count":960,
		"type":"SCALAR",
		"componentType":5123,
		"byteOffset":0,
		"min":[0],
		"max":[237]
	},
	{
		"bufferView":1,
		"count":238,
		"type":"VEC3",
		"componentType":5126,
		"byteOffset":0,
		"min":[-160.2295379638672,
		-28.0,
		-28.0],
		"max":[22.5,
		28.0,
		28.0]
	},
	{
		"bufferView":1,
		"count":238,
		"type":"VEC3",
		"componentType":5126,
		"byteOffset":12,
		"min":[-1.0,
		-1.0,
		-1.0],
		"max":[1.0,
		1.0,
		1.0]
	},
	{
		"bufferView":1,
		"count":238,
		"type":"VEC2",
		"componentType":5126,
		"byteOffset":24,
		"min":[0.0,
		0.0],
		"max":[1.0,
		1.0]
	},
	{
		"bufferView":2,
		"count":960,
		"type":"SCALAR",
		"componentType":5123,
		"byteOffset":0,
		"min":[0],
		"max":[237]
	},
	{
		"bufferView":3,
		"count":238,
		"type":"VEC3",
		"componentType":5126,
		"byteOffset":0,
		"min":[-119.94953155517578,
		-35.0,
		-35.0],
		"max":[22.5,
		35.0,
		35.0]
	},
	{
		"bufferView":3,
		"count":238,
		"type":"VEC3",
		"componentType":5126,
		"byteOffset":12,
		"min":[-1.0,
		-1.0,
		-1.0],
		"max":[1.0,
		1.0,
		1.0]
	},
	{
		"bufferView":3,
		"count":238,
		"type":"VEC2",
		"componentType":5126,
		"byteOffset":24,
		"min":[0.0,
		0.0],
		"max":[1.0,
		1.0]
	},
	{
		"bufferView":4,
		"count":960,
		"type":"SCALAR",
		"componentType":5123,
		"byteOffset":0,
		"min":[0],
		"max":[237]
	},
	{
		"bufferView":5,
		"count":238,
		"type":"VEC3",
		"componentType":5126,
		"byteOffset":0,
		"min":[-177.14036560058595,
		-41.0,
		-41.0],
		"max":[22.5,
		41.0,
		41.0]
	},
	{
		"bufferView":5,
		"count":238,
		"type":"VEC3",
		"componentType":5126,
		"byteOffset":12,
		"min":[-1.0,
		-1.0,
		-1.0],
		"max":[1.0,
		1.0,
		1.0]
	},
	{
		"bufferView":5,
		"count":238,
		"type":"VEC2",
		"componentType":5126,
		"byteOffset":24,
		"min":[0.0,
		0.0],
		"max":[1.0,
		1.0]
	},
	{
		"bufferView":6,
		"count":960,
		"type":"SCALAR",
		"componentType":5123,
		"byteOffset":0,
		"min":[0],
		"max":[237]
	},
	{
		"bufferView":7,
		"count":238,
		"type":"VEC3",
		"componentType":5126,
		"byteOffset":0,
		"min":[-234.2362060546875,
		-45.0,
		-45.0],
		"max":[22.5,
		45.0,
		45.0]
	},
	{
		"bufferView":7,
		"count":238,
		"type":"VEC3",
		"componentType":5126,
		"byteOffset":12,
		"min":[-1.0,
		-1.0,
		-1.0],
		"max":[1.0,
		1.0,
		1.0]
	},
	{
		"bufferView":7,
		"count":238,
		"type":"VEC2",
		"componentType":5126,
		"byteOffset":24,
		"min":[0.0,
		0.0],
		"max":[1.0,
		1.0]
	},
	{
		"bufferView":8,
		"count":18,
		"type":"SCALAR",
		"componentType":5123,
		"byteOffset":0,
		"min":[0],
		"max":[9]
	},
	{
		"bufferView":9,
		"count":10,
		"type":"VEC3",
		"componentType":5126,
		"byteOffset":0,
		"min":[-69.33324432373047,
		28.190086364746095,
		-133.98220825195313],
		"max":[68.8919906616211,
		57.06314468383789,
		-89.04069519042969]
	},
	{
		"bufferView":10,
		"count":126,
		"type":"SCALAR",
		"componentType":5123,
		"byteOffset":0,
		"min":[0],
		"max":[38]
	},
	{
		"bufferView":11,
		"count":39,
		"type":"VEC3",
		"componentType":5126,
		"byteOffset":0,
		"min":[-114.70587921142578,
		23.74799156188965,
		-514.107177734375],
		"max":[114.26461791992188,
		65.33045959472656,
		-60.515403747558597]
	},
	{
		"bufferView":12,
		"count":42,
		"type":"SCALAR",
		"componentType":5123,
		"byteOffset":0,
		"min":[0],
		"max":[13]
	},
	{
		"bufferView":13,
		"count":14,
		"type":"VEC3",
		"componentType":5126,
		"byteOffset":0,
		"min":[-85.11260223388672,
		28.819278717041017,
		-95.2434310913086],
		"max":[84.67134094238281,
		78.26811218261719,
		-41.43419647216797]
	},
	{
		"bufferView":14,
		"count":180,
		"type":"SCALAR",
		"componentType":5123,
		"byteOffset":0,
		"min":[0],
		"max":[39]
	},
	{
		"bufferView":15,
		"count":40,
		"type":"VEC3",
		"componentType":5126,
		"byteOffset":0,
		"min":[-91.37165069580078,
		84.97820281982422,
		-511.2119445800781],
		"max":[90.93038940429688,
		108.21478271484375,
		-415.1252136230469]
	},
	{
		"bufferView":16,
		"count":1134,
		"type":"SCALAR",
		"componentType":5123,
		"byteOffset":0,
		"min":[0],
		"max":[259]
	},
	{
		"bufferView":17,
		"count":260,
		"type":"VEC3",
		"componentType":5126,
		"byteOffset":0,
		"min":[-105.54895782470703,
		23.731149673461915,
		-470.29052734375],
		"max":[105.10770416259766,
		106.14598846435547,
		-357.83056640625]
	},
	{
		"bufferView":18,
		"count":246,
		"type":"SCALAR",
		"componentType":5123,
		"byteOffset":0,
		"min":[0],
		"max":[63]
	},
	{
		"bufferView":19,
		"count":64,
		"type":"VEC3",
		"componentType":5126,
		"byteOffset":0,
		"min":[-133.12367248535157,
		27.496767044067384,
		-191.21246337890626],
		"max":[132.6824188232422,
		110.20185852050781,
		-88.19026184082031]
	},
	{
		"bufferView":20,
		"count":102,
		"type":"SCALAR",
		"componentType":5123,
		"byteOffset":0,
		"min":[0],
		"max":[25]
	},
	{
		"bufferView":21,
		"count":26,
		"type":"VEC3",
		"componentType":5126,
		"byteOffset":0,
		"min":[-116.07499694824219,
		28.471595764160158,
		-98.33171081542969],
		"max":[115.63373565673828,
		109.34695434570313,
		-40.379600524902347]
	},
	{
		"bufferView":22,
		"count":102,
		"type":"SCALAR",
		"componentType":5123,
		"byteOffset":0,
		"min":[0],
		"max":[26]
	},
	{
		"bufferView":23,
		"count":27,
		"type":"VEC3",
		"componentType":5126,
		"byteOffset":0,
		"min":[-98.16316986083985,
		28.819278717041017,
		-77.2193832397461],
		"max":[97.72190856933594,
		112.97189331054688,
		-23.087722778320314]
	},
	{
		"bufferView":24,
		"count":90,
		"type":"SCALAR",
		"componentType":5123,
		"byteOffset":0,
		"min":[0],
		"max":[22]
	},
	{
		"bufferView":25,
		"count":23,
		"type":"VEC3",
		"componentType":5126,
		"byteOffset":0,
		"min":[-86.48987579345703,
		85.4393310546875,
		-513.7863159179688],
		"max":[86.04862213134766,
		124.61770629882813,
		-187.87060546875]
	},
	{
		"bufferView":26,
		"count":42,
		"type":"SCALAR",
		"componentType":5123,
		"byteOffset":0,
		"min":[0],
		"max":[13]
	},
	{
		"bufferView":27,
		"count":14,
		"type":"VEC3",
		"componentType":5126,
		"byteOffset":0,
		"min":[-97.5636215209961,
		90.42578887939453,
		-327.48614501953127],
		"max":[97.12236022949219,
		108.05674743652344,
		-179.49215698242188]
	},
	{
		"bufferView":28,
		"count":30,
		"type":"SCALAR",
		"componentType":5123,
		"byteOffset":0,
		"min":[0],
		"max":[13]
	},
	{
		"bufferView":29,
		"count":14,
		"type":"VEC3",
		"componentType":5126,
		"byteOffset":0,
		"min":[-92.02698516845703,
		101.97625732421875,
		-370.2708740234375],
		"max":[91.58572387695313,
		123.471923828125,
		-152.31520080566407]
	},
	{
		"bufferView":30,
		"count":1341,
		"type":"SCALAR",
		"componentType":5123,
		"byteOffset":0,
		"min":[0],
		"max":[354]
	},
	{
		"bufferView":31,
		"count":355,
		"type":"VEC3",
		"componentType":5126,
		"byteOffset":0,
		"min":[-133.12367248535157,
		28.77378273010254,
		-514.107177734375],
		"max":[132.6824188232422,
		124.61770629882813,
		-38.71929931640625]
	}],
	"nodes":[{
		"name":"Symmetrie.3",
		"children":[5]
	},
	{
		"name":"Symmetrie.2",
		"children":[6]
	},
	{
		"name":"Symmetrie.1",
		"children":[7]
	},
	{
		"name":"Symmetrie",
		"children":[8]
	},
	{
		"name":"Boole_1__2",
		"translation":[0.22062887251377107,
		0.0,
		0.0],
		"rotation":[0.0,
		0.0,
		0.0,
		-1.0],
		"scale":[1.0,
		1.0,
		1.0],
		"children":[9,
		10,
		11,
		12,
		13,
		14,
		15,
		16,
		17,
		18,
		19,
		20]
	},
	{
		"name":"Zylinder",
		"mesh":0,
		"translation":[68.8647689819336,
		60.39518356323242,
		-140.5005645751953],
		"rotation":[0.0,
		0.0,
		0.0,
		-1.0],
		"scale":[1.0,
		1.0,
		1.0]
	},
	{
		"name":"Zylinder.1",
		"mesh":1,
		"translation":[48.72476577758789,
		56.43287658691406,
		-404.77978515625],
		"rotation":[0.0,
		0.0,
		0.0,
		-1.0],
		"scale":[1.0,
		1.0,
		1.0]
	},
	{
		"name":"Zylinder.1",
		"mesh":2,
		"translation":[77.32018280029297,
		56.43287658691406,
		-404.77978515625],
		"rotation":[0.0,
		0.0,
		0.0,
		-1.0],
		"scale":[1.0,
		1.0,
		1.0]
	},
	{
		"name":"Zylinder",
		"mesh":3,
		"translation":[105.86810302734375,
		60.39518356323242,
		-140.5005645751953],
		"rotation":[0.0,
		0.0,
		0.0,
		-1.0],
		"scale":[1.0,
		1.0,
		1.0]
	},
	{
		"name":"Boole_1__2-Mat.5",
		"mesh":4
	},
	{
		"name":"Boole_1__2-Mat.4",
		"mesh":5
	},
	{
		"name":"Boole_1__2-Mat.2",
		"mesh":6
	},
	{
		"name":"Boole_1__2-Mat.5",
		"mesh":7
	},
	{
		"name":"Boole_1__2-Mat.4",
		"mesh":8
	},
	{
		"name":"Boole_1__2-Mat.4",
		"mesh":9
	},
	{
		"name":"Boole_1__2-Mat.7",
		"mesh":10
	},
	{
		"name":"Boole_1__2-Mat.4",
		"mesh":11
	},
	{
		"name":"Boole_1__2-Mat.6",
		"mesh":12
	},
	{
		"name":"Boole_1__2-Mat.5",
		"mesh":13
	},
	{
		"name":"Boole_1__2-Mat.4",
		"mesh":14
	},
	{
		"name":"Boole_1__2-Mat.2",
		"mesh":15
	}],
	"meshes":[{
		"name":"Zylinder",
		"primitives":[{
			"attributes":{
				"NORMAL":2,
				"POSITION":1,
				"TEXCOORD_0":3
			},
			"indices":0,
			"material":0
		}]
	},
	{
		"name":"Zylinder.1",
		"primitives":[{
			"attributes":{
				"NORMAL":6,
				"POSITION":5,
				"TEXCOORD_0":7
			},
			"indices":4,
			"material":0
		}]
	},
	{
		"name":"Zylinder.1",
		"primitives":[{
			"attributes":{
				"NORMAL":10,
				"POSITION":9,
				"TEXCOORD_0":11
			},
			"indices":8,
			"material":0
		}]
	},
	{
		"name":"Zylinder",
		"primitives":[{
			"attributes":{
				"NORMAL":14,
				"POSITION":13,
				"TEXCOORD_0":15
			},
			"indices":12,
			"material":0
		}]
	},
	{
		"name":"Boole_1__2-Mat.5",
		"primitives":[{
			"attributes":{
				"POSITION":17
			},
			"indices":16,
			"material":1
		}]
	},
	{
		"name":"Boole_1__2-Mat.4",
		"primitives":[{
			"attributes":{
				"POSITION":19
			},
			"indices":18,
			"material":0
		}]
	},
	{
		"name":"Boole_1__2-Mat.2",
		"primitives":[{
			"attributes":{
				"POSITION":21
			},
			"indices":20,
			"material":2
		}]
	},
	{
		"name":"Boole_1__2-Mat.5",
		"primitives":[{
			"attributes":{
				"POSITION":23
			},
			"indices":22,
			"material":1
		}]
	},
	{
		"name":"Boole_1__2-Mat.4",
		"primitives":[{
			"attributes":{
				"POSITION":25
			},
			"indices":24,
			"material":0
		}]
	},
	{
		"name":"Boole_1__2-Mat.4",
		"primitives":[{
			"attributes":{
				"POSITION":27
			},
			"indices":26,
			"material":0
		}]
	},
	{
		"name":"Boole_1__2-Mat.7",
		"primitives":[{
			"attributes":{
				"POSITION":29
			},
			"indices":28,
			"material":3
		}]
	},
	{
		"name":"Boole_1__2-Mat.4",
		"primitives":[{
			"attributes":{
				"POSITION":31
			},
			"indices":30,
			"material":0
		}]
	},
	{
		"name":"Boole_1__2-Mat.6",
		"primitives":[{
			"attributes":{
				"POSITION":33
			},
			"indices":32,
			"material":4
		}]
	},
	{
		"name":"Boole_1__2-Mat.5",
		"primitives":[{
			"attributes":{
				"POSITION":35
			},
			"indices":34,
			"material":1
		}]
	},
	{
		"name":"Boole_1__2-Mat.4",
		"primitives":[{
			"attributes":{
				"POSITION":37
			},
			"indices":36,
			"material":0
		}]
	},
	{
		"name":"Boole_1__2-Mat.2",
		"primitives":[{
			"attributes":{
				"POSITION":39
			},
			"indices":38,
			"material":2
		}]
	}],
	"bufferViews":[{
		"buffer":0,
		"byteOffset":0,
		"byteLength":1920,
		"target":34963
	},
	{
		"buffer":0,
		"byteOffset":1920,
		"byteLength":7616,
		"target":34962,
		"byteStride":32
	},
	{
		"buffer":1,
		"byteOffset":0,
		"byteLength":1920,
		"target":34963
	},
	{
		"buffer":1,
		"byteOffset":1920,
		"byteLength":7616,
		"target":34962,
		"byteStride":32
	},
	{
		"buffer":2,
		"byteOffset":0,
		"byteLength":1920,
		"target":34963
	},
	{
		"buffer":2,
		"byteOffset":1920,
		"byteLength":7616,
		"target":34962,
		"byteStride":32
	},
	{
		"buffer":3,
		"byteOffset":0,
		"byteLength":1920,
		"target":34963
	},
	{
		"buffer":3,
		"byteOffset":1920,
		"byteLength":7616,
		"target":34962,
		"byteStride":32
	},
	{
		"buffer":4,
		"byteOffset":0,
		"byteLength":36,
		"target":34963
	},
	{
		"buffer":4,
		"byteOffset":36,
		"byteLength":120,
		"target":34962
	},
	{
		"buffer":5,
		"byteOffset":0,
		"byteLength":252,
		"target":34963
	},
	{
		"buffer":5,
		"byteOffset":252,
		"byteLength":468,
		"target":34962
	},
	{
		"buffer":6,
		"byteOffset":0,
		"byteLength":84,
		"target":34963
	},
	{
		"buffer":6,
		"byteOffset":84,
		"byteLength":168,
		"target":34962
	},
	{
		"buffer":7,
		"byteOffset":0,
		"byteLength":360,
		"target":34963
	},
	{
		"buffer":7,
		"byteOffset":360,
		"byteLength":480,
		"target":34962
	},
	{
		"buffer":8,
		"byteOffset":0,
		"byteLength":2268,
		"target":34963
	},
	{
		"buffer":8,
		"byteOffset":2268,
		"byteLength":3120,
		"target":34962
	},
	{
		"buffer":9,
		"byteOffset":0,
		"byteLength":492,
		"target":34963
	},
	{
		"buffer":9,
		"byteOffset":492,
		"byteLength":768,
		"target":34962
	},
	{
		"buffer":10,
		"byteOffset":0,
		"byteLength":204,
		"target":34963
	},
	{
		"buffer":10,
		"byteOffset":204,
		"byteLength":312,
		"target":34962
	},
	{
		"buffer":11,
		"byteOffset":0,
		"byteLength":204,
		"target":34963
	},
	{
		"buffer":11,
		"byteOffset":204,
		"byteLength":324,
		"target":34962
	},
	{
		"buffer":12,
		"byteOffset":0,
		"byteLength":180,
		"target":34963
	},
	{
		"buffer":12,
		"byteOffset":180,
		"byteLength":276,
		"target":34962
	},
	{
		"buffer":13,
		"byteOffset":0,
		"byteLength":84,
		"target":34963
	},
	{
		"buffer":13,
		"byteOffset":84,
		"byteLength":168,
		"target":34962
	},
	{
		"buffer":14,
		"byteOffset":0,
		"byteLength":60,
		"target":34963
	},
	{
		"buffer":14,
		"byteOffset":60,
		"byteLength":168,
		"target":34962
	},
	{
		"buffer":15,
		"byteOffset":0,
		"byteLength":2682,
		"target":34963
	},
	{
		"buffer":15,
		"byteOffset":2684,
		"byteLength":4260,
		"target":34962
	}],
	"buffers":[{
		"uri":"data:application/octet-stream;base64,",
		"byteLength":9536
	},
	{
		"uri":"data:application/octet-stream;base64,",
		"byteLength":9536
	},
	{
		"uri":"data:application/octet-stream;base64,",
		"byteLength":9536
	},
	{
		"uri":"data:application/octet-stream;base64,",
		"byteLength":9536
	},
	{
		"uri":"data:application/octet-stream;base64,",
		"byteLength":156
	},
	{
		"uri":"data:application/octet-stream;base64,",
		"byteLength":720
	},
	{
		"uri":"data:application/octet-stream;base64,",
		"byteLength":252
	},
	{
		"uri":"data:application/octet-stream;base64,",
		"byteLength":840
	},
	{
		"uri":"data:application/octet-stream;base64,",
		"byteLength":5388
	},
	{
		"uri":"data:application/octet-stream;base64,",
		"byteLength":1260
	},
	{
		"uri":"data:application/octet-stream;base64,",
		"byteLength":516
	},
	{
		"uri":"data:application/octet-stream;base64,",
		"byteLength":528
	},
	{
		"uri":"data:application/octet-stream;base64,",
		"byteLength":456
	},
	{
		"uri":"data:application/octet-stream;base64,",
		"byteLength":252
	},
	{
		"uri":"data:application/octet-stream;base64,",
		"byteLength":228
	},
	{
		"uri":"data:application/octet-stream;base64,",
		"byteLength":6944
	}],
	"materials":[{
		"pbrMetallicRoughness":{
			"baseColorFactor":[0.0,
			0.0,
			0.0,
			1.0],
			"metallicFactor":0.0,
			"roughnessFactor":0.5
		},
		"emissiveFactor":[0.0,
		0.0,
		0.0],
		"alphaMode":"OPAQUE",
		"doubleSided":false,
		"name":"Mat.4"
	},
	{
		"pbrMetallicRoughness":{
			"baseColorFactor":[1.0,
			1.0,
			1.0,
			1.0],
			"metallicFactor":0.0,
			"roughnessFactor":0.5
		},
		"emissiveFactor":[0.0,
		0.0,
		0.0],
		"alphaMode":"OPAQUE",
		"doubleSided":false,
		"name":"Mat.5"
	},
	{
		"pbrMetallicRoughness":{
			"baseColorFactor":[1.0,
			0.5166666666666666,
			0.0,
			1.0],
			"metallicFactor":0.0,
			"roughnessFactor":0.5
		},
		"emissiveFactor":[0.0,
		0.0,
		0.0],
		"alphaMode":"OPAQUE",
		"doubleSided":false,
		"name":"Mat.2"
	},
	{
		"pbrMetallicRoughness":{
			"baseColorFactor":[0.8,
			0.0,
			0.0,
			1.0],
			"metallicFactor":0.0,
			"roughnessFactor":0.5
		},
		"emissiveFactor":[0.0,
		0.0,
		0.0],
		"alphaMode":"OPAQUE",
		"doubleSided":false,
		"name":"Mat.7"
	},
	{
		"pbrMetallicRoughness":{
			"baseColorFactor":[0.0,
			0.0,
			0.0,
			1.0],
			"metallicFactor":0.0,
			"roughnessFactor":0.5
		},
		"emissiveFactor":[0.0,
		0.0,
		0.0],
		"alphaMode":"OPAQUE",
		"doubleSided":false,
		"name":"Mat.6"
	}]
}